<svg xmlns="http://www.w3.org/2000/svg" xml:space="preserve" viewBox="0 0 197.5 355.6"><path d="M196.9 84.6h-62.2c.8-4.4 2-8.8 3.7-12.9 2.1-5.2 5.1-8.9 8.1-13.6 5.9-9.5 8.8-22.8-3.5-29-3.9-1.9-9.4-1.4-13.4-2.3-3.2-.7-4.9-2.7-7.1-5.4-2.6-3.2-5.7-5.9-9.2-8.1-1.9-1.1-3.4-2.7-4.5-4.6v-.4c0-4.6-4.4-8.3-9.9-8.3-5.4 0-9.8 3.6-9.9 8.1-1.1 2.1-2.7 3.9-4.7 5.1-3.5 2.2-6.6 4.9-9.2 8.1-2.2 2.6-4.5 4.8-7.6 5.5-4.1 1-9.1.2-13 2.2C42.2 35.2 45 48.6 51 58c3 4.8 6 8.4 8.1 13.6 1.7 4.2 2.9 8.5 3.7 12.9H.6s-1.2 20.7-.3 48.6h196.8c1-27.8-.2-48.5-.2-48.5M.4 133.2c.8 24.1 3.5 53.8 10 80 10.3 41.2 42.4 110.9 88.4 142.3 45.9-31.4 78.1-101.2 88.4-142.3 6.6-26.2 9.1-55.9 10-80z"/><path d="M133 75.7c0-1.2-1-2.2-2.2-2.2-1.2 0-2.2 1-2.2 2.2 0 1.2 1 2.2 2.2 2.2s2.2-1 2.2-2.2m-40.4-5.3c0-.1 0-.1 0 0 0-1.3-1-2.2-2.2-2.2-1.2 0-2.2 1-2.2 2.2 0 1.2 1 2.2 2.2 2.2s2.2-1 2.2-2.2m32.4 2.7c0-1.2-1-2.2-2.2-2.2-1.2 0-2.2 1-2.2 2.2 0 1.2 1 2.2 2.2 2.2s2.2-1 2.2-2.2m-7.9-1.8c0-1.2-1-2.2-2.2-2.2-1.2 0-2.2 1-2.2 2.2 0 1.2 1 2.2 2.2 2.2 1.2.1 2.2-.9 2.2-2.2m-14.4-.9c0-1.2-1.7-2.2-3.7-2.2s-3.7 1-3.7 2.2c0 1.2 1.6 2.2 3.7 2.2 2 0 3.7-1 3.7-2.2m7.2 0c0-1.2-1-2.2-2.2-2.2-1.2 0-2.2 1-2.2 2.2 0 1.2 1 2.2 2.2 2.2s2.2-1 2.2-2.2M63.3 61c1.5-.4 2.4-1.9 2.1-3.4-.7-2-2.5-1.4-4-1.6-2.6-.3-4.9-2.2-7.6-2.2 1 3.3 5.3 7.3 8.9 7.2.2.1.4.1.6 0m41.4-32c1.2 0 2.1-.9 2.1-2.1 0-1.2-.9-2.1-2.1-2.1-1.1 0-2.1.9-2.1 2.1 0 1.1 1 2.1 2.1 2.1m-10.9-5.8c.2 0 .4-.1.6-.1 2.1 0 3.7 1.7 3.7 3.7 0 .7-.2 1.5-.7 2.1.5.3 1 .5 1.5.7.5-.1 1-.4 1.5-.7-.4-.6-.6-1.3-.7-2.1 0-2.1 1.7-3.7 3.7-3.7.2 0 .4 0 .5.1-.3-.5-2.7-3.6-5.1-3.6-2.3 0-4.6 3.1-5 3.6m11.1 21.5c1 0 1.9-.8 1.9-1.8V39c0-1-.8-1.9-1.8-1.9s-1.9.8-1.9 1.8v3.9c-.1 1.1.7 1.9 1.8 1.9m65.6 67 2.7 14.4h6.9l-4.2-18.4 3.8-15.1h-6.2l-3 13.1V92.5h-6.7V126h6.7zM73.6 51.8v-4.4c0-1.2-.9-2.1-2.1-2.1-1.2 0-2.1.9-2.1 2.1v4.4c0 1.2.9 2.1 2.1 2.1 1.2-.1 2.1-1 2.1-2.1M52.5 126H59V92.5h-6.5zM140 92.8c-1.1.7-1.9 1.6-2.5 2.8-.6 1.8-.9 3.7-.8 5.6-.1 1.5.1 3 .5 4.4.3 1 .7 1.9 1.4 2.7 1.1 1.1 2.2 2.2 3.4 3.1 1.2.9 2.2 2 3.2 3.1.5.6.7 1.9.7 3.9 0 .7-.1 1.4-.3 2-.2.4-.6.7-1 .7s-.8-.2-1-.5c-.2-.8-.3-1.6-.3-2.4v-2.4H137v.5c-.1 2 .1 3.9.6 5.8.4 1.4 1.3 2.6 2.5 3.4 1.4.9 3 1.3 4.7 1.3 1.5 0 3.1-.4 4.4-1.2 1.1-.6 2-1.6 2.5-2.8.5-1.7.7-3.5.7-5.3 0-3.3-.4-5.6-1.2-7.1-.8-1.5-2.7-3.4-5.7-5.7-.8-.5-1.5-1.2-2-2-.3-.8-.4-1.6-.4-2.5 0-.6.1-1.3.3-1.9.1-.4.5-.7.9-.7.3 0 .6.2.8.5.2.7.3 1.5.3 2.2v1.1h6.3c0-1.9-.1-3.8-.5-5.7-.5-1.2-1.3-2.2-2.5-2.7-1.4-.8-3-1.1-4.6-1.1-1.4-.1-2.8.2-4.1.9m-15.1 4.7v-5h-11.6V126h12.1v-4.7h-5.5v-11.7h4.7v-4h-4.7v-8.1zM138 63.4c-.3-.6-1.1-.9-1.8-.6-2.3 1-4.8 1.4-7.2 1.2-.1-.2-.1-.4-.1-.6-.3-2 2.6-4.4.2-5.9-.9-.6-2.7-.7-3.5.3-.8 1.1.1 2.6-.2 3.7-.1.4-.4.8-.7 1-2-1.2-3.7-2.8-5.2-4.6.3-.8.8-1.4 1.4-2 0 .3 0 .6.2.8.9 1 2.3.6 2.9-.6 1.6-3.1-3.9-1.4-2.4-3.9 1.8-.3 2-2.6.9-3.7-.4-.4-.9-.6-1.4-.7-.5-.1-1.1-.1-1.6.1-1.4.5-2.1 2.7-.6 3.7.5 2.8-3.9-1-3.7 2.5-.1.9.6 1.8 1.6 1.8.3 0 .6 0 .8-.1.3-.1.4-.5.6-.7.2.6.4 1.3.3 2h-.1c-.4 0-.8.2-1 .6-.1.1-1.8 2.3-6.3 2.2-.1-.2-.2-.5-.3-.7-.6-1.9 2-4.8-.7-5.9-1-.5-2.7-.3-3.4.7-.7 1.2.5 2.5.4 3.7-.1.5-.3.9-.6 1.3-2.1-.8-4-2.1-5.4-3.9-.2-.9-.5-1.9.3-2.3.7-.3 1.4.6 2 .9.6.5 1.5.5 2.2.1 2.9-1.6 2-6.1-1.6-5-.8.2-1.8.9-2.7.6-1.2-.4-.5-1.2-.1-2s.4-1.7-.1-2.4c-.5-.6-1.1-1-1.9-1.2-.8.1-1.4.6-1.9 1.2-.5.7-.6 1.7-.1 2.4.4.7 1.1 1.6-.1 2-.8.3-1.9-.4-2.7-.6-3.6-1-4.4 3.4-1.6 5 .7.4 1.5.4 2.2-.1.5-.3 1.3-1.2 2-.9.8.4.5 1.3.4 2.2-1.5 1.9-3.6 3.4-5.9 4.1-.4-.4-.6-.9-.7-1.4-.1-1.1 1.1-2.5.4-3.7-.6-1-2.4-1.2-3.4-.7-2.6 1.2-.1 4-.7 5.9-.1.2-.2.5-.3.7-4.2 0-5.7-2.1-5.8-2.2-.2-.2-.4-.4-.7-.5-.1-.7 0-1.4.3-2.1.1.3.3.6.6.7.9.4 1.9 0 2.3-.9.1-.3.2-.5.1-.8.1-3.5-4.2.3-3.7-2.5 1.5-1 .8-3.2-.6-3.7-1-.3-2.2-.1-3 .6-1 1-.8 3.3.9 3.7 1.5 2.3-3.9.7-2.4 3.9.6 1.2 2 1.6 2.9.6.2-.3.2-.6.2-.8.5.5.9 1.1 1.2 1.7l-.2.2c-1.6 1.9-3.5 3.6-5.6 4.9-.4-.3-.7-.8-.8-1.2-.3-1.1.7-2.6-.2-3.7-.8-1-2.5-.8-3.5-.3-2.4 1.6.5 4 .2 5.9 0 .2-.1.4-.1.7-2.3.1-4.6-.3-6.8-1.2-.6-.3-1.4-.1-1.7.6v.1c-.3.6-.1 1.4.6 1.8 2.2 1 4.7 1.5 7.1 1.5-.1.6-.2 1.2-.1 1.8-2.1.7-3.3 1.1-3.5 1.2-.7.3-.9 1.1-.6 1.8.3.6 1.1.9 1.7.6.1-.1 16.2-6.1 33.5-6.1 17.3.1 33.5 6.2 33.6 6.3.7.3 1.5 0 1.8-.6.3-.7 0-1.5-.6-1.8-.1-.1-1.4-.6-3.5-1.2.1-.7.1-1.3-.1-2 2.6.1 5.2-.4 7.6-1.5.2-.5.4-1.3.1-2m-53.1 1.1c-3.4.5-6.5 1.1-9.3 1.8-.3-.6-.6-1.2-.9-1.7 1.8-1.1 3.4-2.5 4.8-4.1 1.6 1.3 3.6 2 5.7 2.1-.2.5-.3 1.2-.3 1.9m19.2-.9c-1.8-.1-3.6-.2-5.4-.2-1.8 0-3.6.1-5.4.2-.2-.7-.5-1.4-.7-2.2 2.5-.9 4.7-2.5 6.3-4.6 1.6 1.9 3.6 3.4 5.9 4.4-.3.8-.5 1.6-.7 2.4m17.6 2.8c-2.7-.7-5.9-1.3-9.2-1.8 0-.7-.1-1.3-.3-2 2.2 0 4.4-.8 6.1-2.2 1.3 1.5 2.8 2.8 4.5 3.9-.4.6-.8 1.3-1.1 2.1m-36.2 4.9c0-1.2-1-2.2-2.2-2.2-1.2 0-2.2 1-2.2 2.2 0 1.2 1 2.2 2.2 2.2 1.2.1 2.2-.9 2.2-2.2m75.2 47.9h-5.5v6.9h5.5zm27.1 0h-5.5v6.9h5.5zM69.6 75.7c0-1.3-1-2.2-2.2-2.2-1.2 0-2.2 1-2.2 2.2s1 2.2 2.2 2.2 2.2-1 2.2-2.2m22.2 31.2c.5-.9.8-2.7.8-5.3.1-2.1-.2-4.3-1.1-6.3-.6-1.2-1.6-2-2.8-2.4-2.2-.4-4.4-.6-6.7-.5h-4.9V126H84v-15.1c1 0 1.6.2 1.8.7.3 1.1.4 2.2.3 3.3V126h6.4v-8.9c.1-1.7 0-3.3-.2-5-.2-.7-.5-1.4-.8-2-.7-.9-1.7-1.5-2.7-1.7 1.2.1 2.3-.5 3-1.5m-4.9-6.1v1.8c0 1.5-.2 2.3-.5 2.6-.6.3-1.2.4-1.8.4v-7.4c.7 0 1.3.1 1.8.5.4.6.6 1.3.5 2.1m-9.4-27.7c0-1.2-1-2.2-2.2-2.2-1.2 0-2.2 1-2.2 2.2s1 2.2 2.2 2.2 2.2-1 2.2-2.2m23.6-39.8v-.1c0-1.2-1-2.1-2.2-2-1.2 0-2.2 1-2.2 2.2 0 1.2 1 2.2 2.2 2.2s2.2-1.1 2.2-2.3m29.8 48.4c.3-.7 0-1.5-.6-1.8-20.3-8.1-42.9-8.1-63.2 0-.7.3-.9 1.1-.6 1.8.3.6 1.1.9 1.7.6 19.6-7.7 41.4-7.7 61 0 .6.4 1.4.1 1.7-.6m-29.4 34h-6.3v.5c-.1 2 .1 3.9.6 5.8.4 1.4 1.3 2.6 2.5 3.4 1.4.9 3 1.3 4.7 1.3 1.5 0 3.1-.4 4.4-1.2 1.1-.6 2-1.6 2.5-2.8.5-1.7.7-3.5.7-5.3 0-3.3-.4-5.6-1.2-7.1-.8-1.5-2.7-3.4-5.7-5.7-.8-.5-1.5-1.2-2-2-.3-.8-.4-1.6-.4-2.5 0-.6.1-1.3.3-1.9.1-.4.5-.7.9-.7.3 0 .6.2.8.5.2.7.3 1.5.3 2.2v1.1h6.3c0-1.9-.1-3.8-.5-5.7-.5-1.2-1.3-2.2-2.5-2.7-1.4-.8-3-1.1-4.6-1.1-1.5 0-2.9.3-4.2 1-1.1.7-1.9 1.6-2.5 2.8-.6 1.8-.9 3.7-.8 5.6-.1 1.5.1 3 .5 4.4.3 1 .7 1.9 1.4 2.7 1.1 1.1 2.2 2.2 3.4 3.1 1.2.9 2.2 2 3.2 3.1.5.6.7 1.9.7 3.9 0 .7-.1 1.4-.3 2-.2.4-.6.7-1 .7s-.8-.2-1-.5c-.2-.8-.3-1.6-.3-2.4v-2.5zM63 126h12v-4.7h-5.6v-11.7h4.8v-4h-4.8v-8.1h5.1v-5H63zm-2.1-83.1c-1.6 1.8-3.3 3.9-3.7 6.4-.4 2 1.6 2.9 3.3 2.2 1.8-.8 2-2.5 3.1-3.9 1.3-1.5 2.9-2.8 4.7-3.7 1.3-.7 3.3-1.8 5-1.3.7.3 1.3 1.4 2.1.8.5-.4.2-1.5 0-2-2.1-5.4-12-1.2-14.5 1.5m20.7-9.3c1.2 0 2.1-.9 2.1-2.1 0-1.2-.9-2.1-2.1-2.1-1.2 0-2.1.9-2.1 2.1 0 1.2 1 2.1 2.1 2.1m-3.8 5c1.2 0 2.1-.9 2.1-2.1v-.1c0-1.1-.9-2.1-2.1-2-1.2 0-2.1.9-2.1 2.1 0 1.1.9 2.1 2.1 2.1m-11.6-1.3c1.2 0 2.1-.9 2.1-2.1 0-1.1-.9-2.1-2.1-2.1-1.2 0-2.1.9-2.1 2.1 0 1.1.9 2.1 2.1 2.1m6 0c1.2 0 2.1-.9 2.1-2.1 0-1.1-.9-2.1-2.1-2.1-1.2 0-2.1.9-2.1 2.1 0 1.1 1 2.1 2.1 2.1M95.3 9c.7 1.2 1.7 3.1 2.3 4.3l.1.3c.7 1.2 1.6 1.2 2.3 0l.2-.3c.7-1.2 1.6-3.1 2.3-4.3l.1-.3c.2-.3.3-.6.2-1-.1-.7-.8-1.3-1.6-1.2h-4.8c-1.4 0-2 1-1.3 2.2zM82.8 45.1c.8-.4.8-1.4 1-2.1 1.6-3.5 4.6-6.2 8.2-7.6 1-.3 3-.3 2.8-1.9-.1-1.2-1.6-1.6-2.5-1.8-2.9-.3-5.7.7-7.8 2.7-1.9 1.8-3.4 4-4.2 6.5-.5 1.5 0 5.5 2.5 4.2m5.5-14.2c1.2 0 2.1-.9 2.1-2.1v-.1c0-1.1-.9-2.1-2.1-2-1.2 0-2.1.9-2.1 2.1 0 1.2.9 2.1 2.1 2.1m4-11 .2-.1c1-.5 2.5-1.3 3.5-1.8l.2-.1c1-.5 1-1.3 0-1.8l-.2-.2c-1-.5-2.5-1.3-3.5-1.8l-.2-.1c-1-.5-1.8-.1-1.8 1v3.9c0 1.1.8 1.5 1.8 1M17 111.7l2.7 14.4h6.9l-4.2-18.4 3.8-15.1H20l-3 13.1V92.5h-6.7V126H17zM.4 133.2l.3 7.2h9.5c1 22.2 3.6 47.7 9.3 70.5 5.5 22.3 16.7 49.3 29.9 72.5 14.9 26.2 31.9 47 49.4 60.5 17.5-13.5 34.5-34.3 49.4-60.5 13.1-23.1 24.3-50.3 29.9-72.5 5.7-22.8 8.3-48.4 9.4-70.5h9.4c.1-2.5.2-4.9.3-7.2zm98.3 198.5c-14.6-12.7-28.6-30.8-41.2-52.9-10.6-18.8-19.3-38.7-25.8-59.3h67.1v112.2zM169 208.6c-.8 3.5-1.9 7.2-3.1 10.9H98.8v-79.7h79.3c-1.1 22-3.7 46.8-9.1 68.8M34.2 119.2h-5.4v6.9h5.4zm14.3 2.5h-4.1V92.5h-6.7V126h10.8zm8.3-77.6c1.2 0 2.1-.9 2.1-2.1 0-1.2-.9-2.1-2.1-2.1-1.2 0-2.1.9-2.1 2.1 0 1.2.9 2.1 2.1 2.1m3.8-4.1c1.2 0 2.1-.9 2.1-2.1v-.1c0-1.1-.9-2.1-2.1-2-1.2 0-2.1.9-2.1 2.1 0 1.2 1 2.1 2.1 2.1M54 49.5c1.2 0 2.1-.9 2.1-2.1 0-1.1-.9-2.1-2.1-2.1-1.2 0-2.1.9-2.1 2.1 0 1.2.9 2.1 2.1 2.1m56.8-18.6c1.2 0 2.1-.9 2.1-2.1 0-1.2-.9-2.1-2.1-2.1-1.1 0-2.1.9-2.1 2v.1c0 1.2.9 2.1 2.1 2.1m32.3 16.5c0 1.1.9 2.1 2 2.1h.1c1.2 0 2.1-.9 2.1-2.1 0-1.1-.9-2.1-2-2.1h-.1c-1.2.1-2.1 1-2.1 2.1M101.9 16c-1 .5-1 1.4 0 1.8l.2.1c1 .5 2.5 1.3 3.5 1.8l.2.1c1 .5 1.8.1 1.8-1v-3.9c0-1.1-.8-1.6-1.8-1l-.2.1c-1 .5-2.5 1.4-3.5 1.8zm40.4 28.1c1.2 0 2.1-.9 2.1-2.1 0-1.1-.9-2.1-2-2.1h-.1c-1.2 0-2.1.9-2.1 2.1 0 1.2.9 2.1 2.1 2.1m-7.1 17c3.7.1 7.9-3.9 8.9-7.2-2.7 0-5 1.9-7.6 2.2-1.6.1-3.4-.5-4 1.6-.4 1.5.5 3.1 2.1 3.4zM92.3 26.9c0 1.2.9 2.1 2.1 2.1 1.2 0 2.1-.9 2.1-2.1 0-1.1-.9-2.1-2.1-2.1-1.2 0-2.1.9-2.1 2.1m.9 17.8c1 0 1.9-.9 1.8-1.9v-3.9c0-1-.9-1.9-1.9-1.8-1 0-1.9.9-1.8 1.9v3.9c0 1 .9 1.9 1.9 1.8m33.4 9.1c1.2 0 2.1-.9 2.1-2.1v-4.4c0-1.2-.9-2.1-2.1-2.1s-2.1.9-2.1 2.1v4.4c0 1.2.9 2.1 2.1 2.1M138.5 40c1.2 0 2.1-.9 2.1-2.1 0-1.2-.9-2.1-2.1-2.1-1.1 0-2.1.9-2.1 2v.1c0 1.2.9 2.1 2.1 2.1m-32.7-8.2c-1 .1-2.4.5-2.5 1.8-.2 1.6 1.8 1.6 2.8 1.9 3.6 1.3 6.6 4.1 8.2 7.6.3.7.3 1.7 1 2.1 2.5 1.3 3-2.7 2.5-4.2-.9-2.5-2.3-4.7-4.2-6.5-2.1-2-5-3-7.8-2.7m11.6 1.8c1.2 0 2.1-.9 2.1-2.1 0-1.1-.9-2.1-2-2.1h-.1c-1.2 0-2.1.9-2.1 2.1.1 1.2 1 2.1 2.1 2.1m-19.8 5.1v2c0 .7.6 1.3 1.3 1.3.8 0 1.4-.6 1.4-1.3v-2.1c0-.8-.7-1.4-1.4-1.3-.7 0-1.3.6-1.3 1.4m35.3-1.4c1.2 0 2.1-.9 2.1-2.1 0-1.1-.9-2.1-2-2.1h-.1c-1.1 0-2.1.9-2.1 2.1 0 1.1.9 2.1 2.1 2.1m-6.1 0c1.2 0 2.1-.9 2.1-2.1 0-1.1-.9-2.1-2-2.1h-.1c-1.1 0-2.1.9-2.1 2.1.1 1.1 1 2.1 2.1 2.1m-4.2 6.2c.8.6 1.4-.6 2.1-.8 1.6-.5 3.7.6 5 1.3 1.8.9 3.4 2.1 4.7 3.7 1 1.4 1.3 3.1 3.1 3.9 1.7.7 3.7-.1 3.3-2.2-.5-2.5-2.1-4.6-3.7-6.4-2.5-2.7-12.4-6.9-14.4-1.4-.3.4-.6 1.5-.1 1.9m-3.4-7c0 1.1.9 2.1 2 2.1h.1c1.2 0 2.1-.9 2.1-2.1 0-1.2-.9-2.1-2.1-2.1s-2.1.9-2.1 2.1" style="fill:#ffed00"/></svg>